<?xml version="1.0" encoding="UTF-8"?>
<svg width="41px" height="40px" viewBox="0 0 41 40" version="1.1" xmlns="http://www.w3.org/2000/svg" xmlns:xlink="http://www.w3.org/1999/xlink">
    <!-- Generator: Sketch 55.2 (78181) - https://sketchapp.com -->
    <title>autopilot</title>
    <desc>Created with Sketch.</desc>
    <g id="autopilot" stroke="none" stroke-width="1" fill="none" fill-rule="evenodd">
        <g id="ultrasonic-Sensors" transform="translate(-1.000000, 0.000000)" fill="#000000" fill-rule="nonzero">
            <path d="M21.6,40 L21.2,40 C10.1333333,40 1.2,31.0666667 1.2,20 C1.2,8.93333333 10.1333333,0 21.2,0 L21.6,0 C32.6666667,0 41.6,8.93333333 41.6,20 C41.6,31.0666667 32.5333333,40 21.6,40 Z M21.0666667,1.33333333 C10.8,1.33333333 2.4,9.73333333 2.4,20 C2.4,30.2666667 10.8,38.6666667 21.0666667,38.6666667 L21.4666667,38.6666667 C31.7333333,38.6666667 40.1333333,30.2666667 40.1333333,20 C40.1333333,9.73333333 31.7333333,1.33333333 21.4666667,1.33333333 L21.0666667,1.33333333 Z" id="Shape"></path>
            <polygon id="Path" points="13.6 27.7333333 16.9333333 27.7333333 16.9333333 12 14.5333333 12 10 13.3333333 10.6666667 16.1333333 13.3333333 15.4666667 13.3333333 27.7333333 13.6 27.7333333"></polygon>
            <path d="M19.7333333,27.7333333 L31.3333333,27.7333333 L31.3333333,24.8 L24.5333333,24.8 L27.0666667,22.8 C29.8666667,20.6666667 31.2,19.3333333 31.2,16.8 L31.2,16.8 C31.2,13.8666667 29.0666667,12 25.8666667,12 C23.0666667,12 21.6,13.2 20,15.2 L22.4,17.2 C23.6,15.7333333 24.4,15.0666667 25.6,15.0666667 C26.8,15.0666667 27.7333333,15.7333333 27.7333333,17.0666667 C27.7333333,18.4 26.9333333,19.2 25.0666667,20.8 L19.8666667,25.0666667 L19.7333333,27.7333333 L19.7333333,27.7333333 Z" id="Path"></path>
        </g>
    </g>
</svg>