<?xml version="1.0" encoding="UTF-8"?>
<svg width="67px" height="40px" viewBox="0 0 67 40" version="1.1" xmlns="http://www.w3.org/2000/svg" xmlns:xlink="http://www.w3.org/1999/xlink">
    <!-- Generator: Sketch 55.2 (78181) - https://sketchapp.com -->
    <title>MS_roof</title>
    <desc>Created with Sketch.</desc>
    <g id="MS_roof" stroke="none" stroke-width="1" fill="none" fill-rule="evenodd">
        <g id="roof" transform="translate(0.000000, 4.000000)" fill="#000000" fill-rule="nonzero">
            <path d="M58.4258065,8.36129032 C57.7032258,8.25806452 56.5677419,8.0516129 51.6129032,7.84516129 L51.6129032,8.36129032 C51.6129032,8.36129032 51.9225806,12.8 51.9225806,16.516129 C51.9225806,20.2322581 51.6129032,24.6709677 51.6129032,24.6709677 L51.6129032,25.1870968 C56.5677419,24.8774194 57.7032258,24.7741935 58.4258065,24.6709677 L58.5290323,24.6709677 C61.4193548,24.1548387 62.8645161,21.3677419 62.8645161,16.516129 C62.8645161,11.6645161 61.2129032,8.87741935 58.4258065,8.36129032 Z" id="Path"></path>
            <path d="M66.2709677,14.0387097 C66.0645161,13.2129032 65.8580645,12.3870968 65.5483871,11.6645161 C65.2387097,11.0451613 65.0322581,10.5290323 64.6193548,10.0129032 C64.516129,9.6 64.4129032,9.29032258 64.2064516,8.87741935 L64.2064516,8.77419355 C63.7935484,7.63870968 63.1741935,6.60645161 62.9677419,6.29677419 C62.6580645,5.78064516 62.3483871,5.26451613 61.4193548,5.05806452 C61.316129,5.05806452 61.1096774,4.95483871 60.8,4.8516129 C59.8709677,4.54193548 58.2193548,4.12903226 56.9806452,3.92258065 C56.3612903,3.81935484 56.0516129,3.71612903 55.7419355,3.61290323 C55.3290323,3.50967742 54.8129032,3.30322581 53.883871,3.30322581 C52.2322581,3.09677419 51.0967742,3.09677419 48.516129,3.2 C47.2774194,3.30322581 46.6580645,3.40645161 46.1419355,3.50967742 C45.6258065,3.61290323 45.2129032,3.71612903 44.283871,3.71612903 L40.9806452,3.71612903 C38.5032258,3.71612903 35.0967742,3.61290323 31.5870968,3.61290323 L26.3225806,3.61290323 L26.7354839,2.58064516 C26.9419355,2.06451613 26.8387097,1.5483871 26.3225806,1.13548387 C25.9096774,0.825806452 25.2903226,0.825806452 24.8774194,1.13548387 C24.3612903,1.5483871 23.5354839,2.58064516 22.8129032,3.40645161 C22.8129032,3.50967742 22.7096774,3.50967742 22.7096774,3.61290323 L18.5806452,3.61290323 C18.2709677,3.61290323 17.6516129,3.50967742 16.8258065,3.50967742 C15.6903226,3.40645161 14.1419355,3.2 12.9032258,3.2 C10.9419355,3.2 8.87741935,3.40645161 8.0516129,3.81935484 C7.9483871,3.81935484 7.74193548,3.92258065 7.63870968,3.92258065 C7.01935484,4.23225806 5.78064516,4.64516129 4.8516129,5.67741935 C3.92258065,6.70967742 2.58064516,9.18709677 1.85806452,10.6322581 C1.5483871,11.2516129 0.929032258,12.283871 0.929032258,16.516129 C0.929032258,20.6451613 1.5483871,21.7806452 1.85806452,22.4 C2.58064516,23.7419355 3.92258065,26.2193548 4.8516129,27.3548387 C5.78064516,28.3870968 6.91612903,28.8 7.74193548,29.0064516 C7.9483871,29.1096774 8.0516129,29.1096774 8.15483871,29.1096774 C8.87741935,29.4193548 11.0451613,29.7290323 13.0064516,29.7290323 C14.3483871,29.7290323 15.7935484,29.5225806 16.9290323,29.4193548 C17.6516129,29.316129 18.2709677,29.316129 18.683871,29.316129 L22.8129032,29.316129 C22.8129032,29.4193548 22.916129,29.4193548 22.916129,29.5225806 C23.5354839,30.3483871 24.4645161,31.3806452 24.9806452,31.7935484 C25.1870968,32 25.4967742,32 25.7032258,32 C25.9096774,32 26.2193548,31.8967742 26.4258065,31.7935484 C26.8387097,31.483871 27.0451613,30.8645161 26.8387097,30.3483871 L26.4258065,29.316129 L31.6903226,29.316129 C35.2,29.316129 38.6064516,29.316129 41.083871,29.2129032 L44.3870968,29.2129032 C45.316129,29.2129032 45.7290323,29.316129 46.2451613,29.4193548 C46.7612903,29.5225806 47.3806452,29.7290323 48.6193548,29.7290323 C49.8580645,29.8322581 50.7870968,29.8322581 51.6129032,29.8322581 C52.4387097,29.8322581 53.1612903,29.8322581 53.9870968,29.7290323 C54.916129,29.6258065 55.4322581,29.5225806 55.8451613,29.4193548 C56.1548387,29.316129 56.4645161,29.2129032 57.083871,29.1096774 C58.0129032,29.0064516 59.1483871,28.6967742 60.1806452,28.3870968 C60.4903226,28.283871 60.6967742,28.1806452 61.0064516,28.1806452 C61.2129032,28.0774194 61.5225806,28.0774194 61.6258065,27.9741935 C62.5548387,27.7677419 62.8645161,27.2516129 63.1741935,26.7354839 C63.3806452,26.4258065 63.8967742,25.2903226 64.4129032,24.2580645 L64.4129032,24.1548387 C64.516129,23.7419355 64.7225806,23.3290323 64.8258065,23.0193548 C65.1354839,22.5032258 65.4451613,21.883871 65.7548387,21.3677419 C66.0645161,20.6451613 66.3741935,19.8193548 66.4774194,18.9935484 C66.683871,18.1677419 66.683871,17.3419355 66.683871,16.516129 C66.4774194,15.6903226 66.4774194,14.8645161 66.2709677,14.0387097 Z M8.15483871,8.46451613 C9.29032258,8.15483871 10.5290323,7.84516129 11.7677419,7.63870968 C13.0064516,7.43225806 14.1419355,7.22580645 15.3806452,7.01935484 C16.2064516,6.91612903 16.9290323,6.81290323 17.7548387,6.70967742 C16.2064516,9.08387097 15.2774194,12.5935484 15.2774194,16.4129032 C15.2774194,20.2322581 16.2064516,23.7419355 17.7548387,26.116129 C16.9290323,26.0129032 16.2064516,25.9096774 15.3806452,25.8064516 C14.1419355,25.6 12.9032258,25.4967742 11.7677419,25.1870968 C10.5290323,24.9806452 9.39354839,24.6709677 8.15483871,24.3612903 C7.01935484,24.0516129 5.78064516,23.6387097 4.64516129,23.1225806 C5.67741935,23.7419355 6.91612903,24.1548387 8.0516129,24.6709677 C9.18709677,25.083871 10.4258065,25.4967742 11.5612903,25.8064516 C12.8,26.116129 13.9354839,26.4258065 15.1741935,26.7354839 C16.4129032,27.0451613 17.5483871,27.2516129 18.7870968,27.4580645 C19.716129,27.6645161 20.6451613,27.8709677 21.1612903,27.9741935 C21.1612903,28.0774194 21.2645161,28.0774194 21.2645161,28.0774194 L18.4774194,28.0774194 C18.0645161,28.0774194 17.4451613,28.1806452 16.6193548,28.1806452 C15.483871,28.283871 14.0387097,28.4903226 12.8,28.4903226 C10.7354839,28.4903226 8.87741935,28.1806452 8.46451613,27.9741935 C8.46451613,28.0774194 8.25806452,27.9741935 8.0516129,27.8709677 C7.32903226,27.6645161 6.4,27.3548387 5.67741935,26.5290323 C5.16129032,25.9096774 4.12903226,24.1548387 2.89032258,21.883871 C2.58064516,21.3677419 2.06451613,20.4387097 2.06451613,16.516129 C2.06451613,12.5935484 2.58064516,11.6645161 2.78709677,11.1483871 C4.12903226,8.87741935 5.16129032,7.12258065 5.78064516,6.4 C6.4,5.67741935 7.32903226,5.36774194 8.0516129,5.16129032 C8.25806452,5.05806452 8.46451613,4.95483871 8.56774194,4.95483871 C9.08387097,4.7483871 10.8387097,4.43870968 12.9032258,4.43870968 C14.1419355,4.43870968 15.5870968,4.54193548 16.7225806,4.7483871 C17.5483871,4.8516129 18.1677419,4.95483871 18.5806452,4.95483871 L21.3677419,4.95483871 L21.2645161,5.05806452 C20.7483871,5.16129032 19.8193548,5.36774194 18.8903226,5.57419355 C17.6516129,5.78064516 16.516129,5.98709677 15.2774194,6.29677419 C14.0387097,6.60645161 12.9032258,6.81290323 11.6645161,7.22580645 C10.4258065,7.43225806 9.29032258,7.74193548 8.0516129,8.25806452 C6.91612903,8.67096774 5.78064516,9.08387097 4.64516129,9.70322581 C5.78064516,9.18709677 7.01935484,8.77419355 8.15483871,8.46451613 Z M25.7032258,2.16774194 C25.7032258,2.16774194 25.7032258,2.27096774 25.7032258,2.16774194 L25.1870968,3.71612903 L24.3612903,3.71612903 C24.8774194,2.89032258 25.3935484,2.37419355 25.7032258,2.16774194 Z M25.7032258,30.8645161 C25.3935484,30.6580645 24.8774194,30.1419355 24.2580645,29.316129 L25.083871,29.316129 L25.7032258,30.8645161 C25.7032258,30.7612903 25.7032258,30.8645161 25.7032258,30.8645161 Z M64.9290323,18.683871 L64.3096774,20.8516129 C64.2064516,21.1612903 64,21.5741935 63.8967742,21.883871 L63.5870968,22.5032258 L63.5870968,22.6064516 C63.483871,22.7096774 63.483871,22.8129032 63.3806452,23.0193548 C63.0709677,23.6387097 62.8645161,24.2580645 62.5548387,24.9806452 C62.5548387,25.083871 62.4516129,25.083871 62.4516129,25.1870968 C62.1419355,25.1870968 61.4193548,25.1870968 60.0774194,25.2903226 L51.6129032,25.2903226 L51.6129032,25.4967742 C51.6129032,26.0129032 51.9225806,26.4258065 52.4387097,26.4258065 L61.5225806,26.4258065 L61.4193548,26.5290323 C60.6967742,27.0451613 59.7677419,27.4580645 59.6645161,27.4580645 C58.7354839,27.6645161 57.6,27.9741935 56.7741935,28.1806452 C56.0516129,28.283871 55.6387097,28.3870968 55.3290323,28.4903226 C54.916129,28.5935484 54.6064516,28.6967742 53.6774194,28.8 C52.1290323,28.9032258 50.9935484,28.9032258 48.516129,28.8 C47.3806452,28.6967742 46.7612903,28.5935484 46.2451613,28.4903226 C45.6258065,28.3870968 45.2129032,28.283871 44.1806452,28.283871 L40.8774194,28.283871 C38.4,28.283871 34.9935484,28.3870968 31.483871,28.3870968 L25.3935484,28.3870968 L23.1225806,28.3870968 L22.916129,28.1806452 C24.7741935,27.9741935 28.1806452,27.5612903 30.4516129,27.3548387 C30.5548387,27.3548387 30.5548387,27.3548387 30.5548387,27.2516129 L30.5548387,27.0451613 C29.316129,24.8774194 28.0774194,21.4709677 28.0774194,16.7225806 C28.0774194,11.8709677 29.316129,8.46451613 30.5548387,6.4 L30.5548387,6.19354839 C30.5548387,6.09032258 30.4516129,6.09032258 30.4516129,6.09032258 C28.283871,5.78064516 24.7741935,5.47096774 23.0193548,5.26451613 L23.2258065,5.05806452 L31.5870968,5.05806452 C35.0967742,5.05806452 38.5032258,5.05806452 40.9806452,5.16129032 L44.283871,5.16129032 C45.316129,5.16129032 45.8322581,5.05806452 46.3483871,4.95483871 C46.8645161,4.8516129 47.3806452,4.7483871 48.6193548,4.64516129 C51.0967742,4.43870968 52.2322581,4.54193548 53.7806452,4.64516129 C54.6064516,4.7483871 55.0193548,4.8516129 55.4322581,4.95483871 C55.7419355,5.05806452 56.1548387,5.16129032 56.8774194,5.26451613 C57.7032258,5.16129032 58.8387097,5.36774194 59.7677419,5.67741935 C59.9741935,5.78064516 60.8,6.09032258 61.5225806,6.60645161 C61.5225806,6.60645161 61.6258065,6.60645161 61.6258065,6.70967742 L53.9870968,6.70967742 L52.3354839,6.70967742 C51.9225806,6.70967742 51.5096774,7.12258065 51.6129032,7.53548387 L51.6129032,7.84516129 L60.0774194,7.84516129 C61.316129,7.84516129 62.0387097,7.84516129 62.3483871,7.9483871 L62.4516129,8.0516129 C62.6580645,8.77419355 62.9677419,9.39354839 63.2774194,10.116129 C63.3806452,10.2193548 63.3806452,10.3225806 63.483871,10.5290323 L63.483871,10.6322581 L63.7935484,11.2516129 C63.8967742,11.5612903 64.1032258,11.9741935 64.2064516,12.283871 C64.516129,13.0064516 64.7225806,13.7290323 64.8258065,14.4516129 C65.0322581,15.1741935 65.1354839,15.8967742 65.1354839,16.7225806 C65.2387097,17.2387097 65.1354839,17.9612903 64.9290323,18.683871 Z" id="Shape"></path>
            <path d="M50.7870968,8.36129032 L50.683871,7.43225806 C50.683871,7.01935484 50.2709677,6.60645161 49.8580645,6.60645161 C48.7225806,6.60645161 47.1741935,6.60645161 45.2129032,6.50322581 C39.2258065,6.50322581 34.8903226,6.29677419 32,5.98709677 C31.7935484,5.98709677 31.5870968,6.09032258 31.483871,6.29677419 C30.3483871,8.46451613 29.1096774,11.7677419 29.1096774,16.516129 C29.1096774,21.2645161 30.2451613,24.5677419 31.483871,26.7354839 C31.5870968,26.9419355 31.7935484,27.0451613 32,27.0451613 C34.8903226,26.7354839 39.2258065,26.5290323 45.2129032,26.4258065 C47.1741935,26.4258065 48.7225806,26.3225806 49.8580645,26.3225806 C50.2709677,26.3225806 50.5806452,26.0129032 50.683871,25.4967742 L50.7870968,24.5677419 C50.7870968,24.5677419 50.9935484,20.1290323 50.9935484,16.4129032 C50.9935484,12.6967742 50.7870968,8.46451613 50.7870968,8.36129032 Z" id="Path"></path>
        </g>
    </g>
</svg>