<?xml version="1.0" encoding="UTF-8"?>
<svg width="46px" height="41px" viewBox="0 0 46 41" version="1.1" xmlns="http://www.w3.org/2000/svg" xmlns:xlink="http://www.w3.org/1999/xlink">
    <!-- Generator: Sketch 55.2 (78181) - https://sketchapp.com -->
    <title>MX_falcon-wings</title>
    <desc>Created with Sketch.</desc>
    <g id="MX_falcon-wings" stroke="none" stroke-width="1" fill="none" fill-rule="evenodd" transform="translate(0.000000, 1.000000)">
        <g id="falcon" transform="translate(0.000000, 3.000000)" fill="#000000" fill-rule="nonzero">
            <path d="M19.9707317,7.59333333 C16.604878,7.70666667 13.9121951,8.04666667 13.9121951,8.04666667 L13.6878049,8.04666667 C13.4634146,8.16 11.3317073,9.18 9.31219512,14.3933333 L9.31219512,14.7333333 C9.42439024,14.62 9.42439024,14.62 9.53658537,14.62 C14.0243902,14.5066667 18.5121951,14.3933333 23.1121951,14.3933333 C27.8243902,14.3933333 32.6487805,14.5066667 37.3609756,14.62 C37.4731707,14.62 37.5853659,14.62 37.5853659,14.7333333 L37.4731707,14.5066667 C35.4536585,9.29333333 33.3219512,8.27333333 33.097561,8.16 L32.8731707,8.16 C32.8731707,8.16 30.1804878,7.82 26.8146341,7.70666667 C26.0292683,7.70666667 25.1317073,7.59333333 24.2341463,7.59333333 L19.9707317,7.59333333 Z M4.93658537,2.60666667 C9.31219512,2.38 15.0341463,1.92666667 16.7170732,1.92666667 C19.297561,1.92666667 19.5219512,2.60666667 19.8585366,4.87333333 L19.8585366,4.98666667 L19.9707317,6.8 C20.7560976,6.8 21.6536585,6.68666667 22.4390244,6.68666667 C22.2146341,4.64666667 21.8780488,2.83333333 21.8780488,2.49333333 C21.7658537,2.15333333 21.204878,0.793333333 20.6439024,0.453333333 C20.5317073,0.453333333 20.4195122,0.34 20.0829268,0.34 C19.5219512,0.226666667 18.7365854,0.113333333 17.8390244,0.113333333 C17.0536585,0.113333333 16.2682927,0 15.3707317,0.113333333 L10.8829268,0 L9.2,0 C8.52682927,0.226666667 6.6195122,1.02 4.71219512,2.04 C4.48780488,2.15333333 4.6,2.72 4.93658537,2.60666667 Z M27.0390244,4.98666667 C27.3756098,2.60666667 27.6,2.04 30.1804878,2.04 C31.8634146,2.04 37.5853659,2.38 41.9609756,2.72 C42.297561,2.72 42.4097561,2.26666667 42.1853659,2.15333333 C40.2780488,1.13333333 38.3707317,0.34 37.697561,0.113333333 L36.0146341,0.113333333 L31.6390244,0.226666667 L29.1707317,0.226666667 C28.2731707,0.226666667 27.3756098,0.34 26.9268293,0.453333333 C26.702439,0.453333333 26.4780488,0.566666667 26.3658537,0.566666667 C25.804878,0.793333333 25.2439024,2.15333333 25.1317073,2.60666667 C25.0195122,2.94666667 24.795122,4.76 24.5707317,6.8 C25.4682927,6.8 26.2536585,6.8 27.0390244,6.91333333 L27.0390244,4.98666667 L27.0390244,4.98666667 Z" id="Shape"></path>
            <path d="M45.5512195,3.85333333 C42.8585366,3.74 32.2,3.06 30.1804878,3.06 C28.6097561,3.06 28.3853659,3.06 28.1609756,4.19333333 C28.1609756,4.53333333 28.2731707,4.76 28.6097561,4.76 L40.8390244,5.66666667 L41.7365854,5.66666667 L44.204878,5.21333333 L44.3170732,5.21333333 C44.7658537,5.1 45.3268293,4.76 45.7756098,4.42 C45.8878049,4.19333333 45.7756098,3.96666667 45.5512195,3.85333333 Z M5.27317073,5.66666667 L6.05853659,5.66666667 L18.2878049,4.64666667 C18.6243902,4.64666667 18.7365854,4.30666667 18.7365854,4.08 C18.5121951,3.06 18.1756098,2.94666667 16.7170732,2.94666667 C14.697561,2.94666667 4.15121951,3.62666667 1.34634146,3.85333333 C1.12195122,3.85333333 1.0097561,4.19333333 1.23414634,4.30666667 C1.68292683,4.64666667 2.24390244,5.1 2.69268293,5.1 L2.80487805,5.1 L5.27317073,5.66666667 L5.27317073,5.66666667 Z M35.5658537,32.3 L35.5658537,33.2066667 C35.5658537,33.66 35.902439,34 36.3512195,34 L41.0634146,34 C41.5121951,34 41.8487805,33.66 41.8487805,33.2066667 L41.8487805,32.3 L35.5658537,32.3 L35.5658537,32.3 Z M41.9609756,31.3933333 C41.9609756,31.3933333 41.9609756,31.28 41.8487805,31.28 L41.8487805,23.0066667 L41.8487805,22.78 C41.7365854,21.5333333 41.5121951,20.5133333 41.1756098,19.8333333 C40.7268293,17.9066667 39.7170732,17.1133333 38.9317073,16.4333333 C38.8195122,16.32 38.7073171,16.32 38.595122,16.2066667 C38.4829268,16.0933333 38.3707317,15.98 38.2585366,15.7533333 C39.3804878,15.7533333 40.8390244,15.7533333 41.4,15.4133333 C41.6243902,15.3 41.9609756,15.1866667 41.7365854,14.62 C41.5121951,14.0533333 41.5121951,14.0533333 41.5121951,13.94 C41.5121951,13.8266667 41.4,13.4866667 40.6146341,13.3733333 C39.8292683,13.26 39.4926829,13.1466667 38.8195122,13.0333333 C38.1463415,12.92 37.697561,13.1466667 37.8097561,13.6 L37.8097561,14.96 C37.8097561,15.1866667 37.5853659,15.4133333 37.3609756,15.4133333 C32.6487805,15.3 27.9365854,15.1866667 23.1121951,15.1866667 C18.6243902,15.1866667 14.0243902,15.3 9.64878049,15.4133333 C9.42439024,15.4133333 9.2,15.1866667 9.2,14.96 L9.2,13.6 C9.2,13.0333333 8.75121951,12.92 8.1902439,13.0333333 C7.51707317,13.1466667 7.1804878,13.26 6.39512195,13.3733333 C5.49756098,13.6 5.49756098,13.94 5.38536585,14.0533333 C5.38536585,14.1666667 5.27317073,14.1666667 5.16097561,14.7333333 C4.93658537,15.3 5.27317073,15.4133333 5.49756098,15.5266667 C6.05853659,15.8666667 7.51707317,15.8666667 8.63902439,15.8666667 C8.52682927,15.98 8.41463415,16.2066667 8.1902439,16.32 C8.07804878,16.4333333 7.96585366,16.4333333 7.85365854,16.5466667 C7.51707317,16.8866667 7.06829268,17.1133333 6.73170732,17.5666667 C6.17073171,18.2466667 5.83414634,18.9266667 5.6097561,19.9466667 C5.27317073,20.5133333 5.04878049,21.42 4.93658537,22.6666667 C4.82439024,22.78 4.82439024,22.8933333 4.82439024,23.0066667 L4.82439024,31.3933333 L41.9609756,31.3933333 Z M33.097561,20.2866667 C33.7707317,19.8333333 34.4439024,19.38 35.2292683,19.2666667 C36.5756098,19.04 39.4926829,18.36 39.8292683,18.36 L40.6146341,20.2866667 C40.6146341,20.5133333 40.502439,21.08 39.3804878,21.1933333 C38.9317073,21.3066667 35.902439,21.5333333 35.6780488,21.5333333 C35.4536585,21.5333333 35.2292683,21.5333333 34.6682927,21.3066667 C34.1073171,20.9666667 33.3219512,20.5133333 33.097561,20.2866667 C33.097561,20.4 33.097561,20.4 33.097561,20.2866667 L33.097561,20.2866667 Z M23.4487805,20.2866667 C26.0292683,20.2866667 32.0878049,20.2866667 32.6487805,21.42 C31.8634146,21.6466667 27.0390244,21.6466667 25.2439024,21.8733333 C25.2439024,21.8733333 25.0195122,21.76 24.4585366,22.3266667 C23.897561,22.8933333 23.4487805,23.46 23.4487805,23.46 C23.4487805,23.46 23,22.8933333 22.4390244,22.3266667 C21.8780488,21.76 21.6536585,21.8733333 21.6536585,21.8733333 C19.8585366,21.6466667 15.0341463,21.6466667 14.2487805,21.42 C14.8097561,20.2866667 20.8682927,20.2866667 23.4487805,20.2866667 L23.4487805,20.2866667 Z M7.51707317,21.1933333 C6.39512195,21.08 6.28292683,20.5133333 6.28292683,20.2866667 L7.06829268,18.36 C7.40487805,18.36 10.3219512,19.04 11.6682927,19.2666667 C12.4536585,19.38 13.1268293,19.8333333 13.8,20.2866667 C13.5756098,20.4 12.7902439,20.8533333 12.3414634,21.08 C11.7804878,21.42 11.5560976,21.3066667 11.3317073,21.3066667 C11.1073171,21.42 8.07804878,21.1933333 7.51707317,21.1933333 L7.51707317,21.1933333 Z M23.4487805,28.3333333 C23.4487805,28.3333333 11.1073171,28.22 8.07804878,28.22 C8.07804878,28.22 8.86341463,27.6533333 9.53658537,27.2 C9.87317073,26.9733333 10.4341463,26.86 10.8829268,26.86 L35.7902439,26.86 C36.3512195,26.86 36.8,26.9733333 37.1365854,27.2 C37.8097561,27.6533333 38.595122,28.22 38.595122,28.22 C35.7902439,28.22 23.4487805,28.3333333 23.4487805,28.3333333 Z M35.4536585,32.3 L33.4341463,32.3 L35.4536585,32.3 Z M11.4439024,32.3 L14.697561,32.3 L11.4439024,32.3 Z M4.93658537,32.1866667 L4.93658537,33.0933333 C4.93658537,33.5466667 5.27317073,33.8866667 5.72195122,33.8866667 L10.4341463,33.8866667 C10.8829268,33.8866667 11.2195122,33.5466667 11.2195122,33.0933333 L11.2195122,32.1866667 L4.93658537,32.1866667 Z" id="Shape"></path>
        </g>
    </g>
</svg>