<?xml version="1.0" encoding="UTF-8"?>
<svg width="41px" height="40px" viewBox="0 0 41 40" version="1.1" xmlns="http://www.w3.org/2000/svg" xmlns:xlink="http://www.w3.org/1999/xlink">
    <!-- Generator: Sketch 55.2 (78181) - https://sketchapp.com -->
    <title>signature-colors</title>
    <desc>Created with Sketch.</desc>
    <g id="signature-colors" stroke="none" stroke-width="1" fill="none" fill-rule="evenodd">
        <g id="5colors" fill="#000000" fill-rule="nonzero">
            <path d="M20.2354839,40 L19.8387097,40 C8.86129032,40 0,31.0666667 0,20 C0,8.93333333 8.86129032,0 19.8387097,0 L20.2354839,0 C31.2129032,0 40.0741935,8.93333333 40.0741935,20 C40.0741935,31.0666667 31.0806452,40 20.2354839,40 Z M19.7064516,1.33333333 C9.52258065,1.33333333 1.19032258,9.73333333 1.19032258,20 C1.19032258,30.2666667 9.52258065,38.6666667 19.7064516,38.6666667 L20.1032258,38.6666667 C30.2870968,38.6666667 38.6193548,30.2666667 38.6193548,20 C38.6193548,9.73333333 30.2870968,1.33333333 20.1032258,1.33333333 L19.7064516,1.33333333 Z" id="Shape"></path>
            <path d="M14.1516129,25.6 L16.2677419,23.0666667 C17.4580645,24.1333333 18.6483871,24.8 19.9709677,24.8 C21.5580645,24.8 22.616129,24 22.616129,22.6666667 L22.616129,22.6666667 C22.616129,21.3333333 21.4258065,20.5333333 19.8387097,20.5333333 C18.9129032,20.5333333 17.9870968,20.8 17.1935484,21.0666667 L15.2096774,19.7333333 L15.6064516,11.8666667 L25.2612903,11.8666667 L25.2612903,14.9333333 L18.516129,14.9333333 L18.383871,17.7333333 C19.0451613,17.6 19.5741935,17.4666667 20.5,17.4666667 C23.5419355,17.4666667 26.0548387,18.9333333 26.0548387,22.5333333 L26.0548387,22.5333333 C26.0548387,25.8666667 23.6741935,28 20.1032258,28 C17.4580645,28 15.6064516,27.0666667 14.1516129,25.6 Z" id="Path"></path>
        </g>
    </g>
</svg>