<?xml version="1.0" encoding="UTF-8"?>
<svg width="40px" height="40px" viewBox="0 0 40 40" version="1.1" xmlns="http://www.w3.org/2000/svg" xmlns:xlink="http://www.w3.org/1999/xlink">
    <!-- Generator: Sketch 55.2 (78181) - https://sketchapp.com -->
    <title>wifi</title>
    <desc>Created with Sketch.</desc>
    <defs>
        <polygon id="path-1" points="0 0.981818182 30.1328542 0.981818182 30.1328542 8.34545455 0 8.34545455"></polygon>
        <path d="M0.752318182,2.57727273 C0.752318182,3.72968182 1.68627273,4.66363636 2.83868182,4.66363636 L2.83868182,4.66363636 C3.99109091,4.66363636 4.92504545,3.72968182 4.92504545,2.57727273 L4.92504545,2.57727273 C4.92504545,1.42486364 3.99109091,0.490909091 2.83868182,0.490909091 L2.83868182,0.490909091 C1.68627273,0.490909091 0.752318182,1.42486364 0.752318182,2.57727273 L0.752318182,2.57727273 Z" id="path-3"></path>
    </defs>
    <g id="wifi" stroke="none" stroke-width="1" fill="none" fill-rule="evenodd">
        <g transform="translate(5.000000, 7.000000)">
            <g id="Group-8" transform="translate(0.000000, 0.245455)">
                <g id="Group-3">
                    <mask id="mask-2" fill="white">
                        <use xlink:href="#path-1"></use>
                    </mask>
                    <g id="Clip-2"></g>
                    <path d="M28.7343818,8.34545455 C28.4889273,8.34545455 28.1207455,8.22272727 27.8752909,8.1 C24.1934727,5.52272727 19.7740636,4.17272727 15.1104273,4.17272727 C10.5707455,4.17272727 6.15256364,5.52272727 2.47074545,7.97727273 C1.73438182,8.46818182 0.752563636,8.22272727 0.261654545,7.60909091 C-0.230481818,6.87272727 0.0162,5.89090909 0.629836364,5.4 C4.80256364,2.45454545 9.83438182,0.981818182 14.9889273,0.981818182 C20.2662,0.981818182 25.2967909,2.57727273 29.4707455,5.4 C30.2058818,5.89090909 30.3298364,6.87272727 29.8377,7.60909091 C29.7162,8.1 29.2240636,8.34545455 28.7343818,8.34545455" id="Fill-1" fill="#000" mask="url(#mask-2)"></path>
                </g>
                <path d="M24.5611636,13.2545455 C24.1929818,13.2545455 23.9475273,13.1318182 23.7020727,13.0090909 C21.2475273,11.2909091 18.3020727,10.4318182 15.1111636,10.4318182 C12.0429818,10.4318182 9.09752727,11.2909091 6.64298182,13.0090909 C5.90661818,13.5 4.9248,13.2545455 4.43389091,12.6409091 C3.94298182,11.9045455 4.18843636,10.9227273 4.80207273,10.4318182 C7.74752727,8.34545455 11.3066182,7.36363636 14.9884364,7.36363636 C18.7929818,7.36363636 22.3520727,8.46818182 25.2975273,10.5545455 C26.0338909,11.0454545 26.1566182,12.0272727 25.6657091,12.7636364 C25.5429818,13.0090909 25.0520727,13.2545455 24.5611636,13.2545455" id="Fill-4" fill="#000"></path>
                <path d="M20.3879455,18.7772727 C20.0197636,18.7772727 19.6515818,18.6545455 19.2846273,18.4090909 C16.8300818,16.2 13.3924909,16.2 10.9379455,18.4090909 C10.3243091,19.0227273 9.34249091,18.9 8.72885455,18.2863636 C8.11521818,17.6727273 8.23917273,16.6909091 8.85280909,16.0772727 C10.6937182,14.4818182 12.7788545,13.6227273 15.1106727,13.6227273 C17.4437182,13.6227273 19.6515818,14.4818182 21.3709909,16.0772727 C21.9846273,16.6909091 22.1061273,17.6727273 21.4924909,18.2863636 C21.2470364,18.5318182 20.7573545,18.7772727 20.3879455,18.7772727" id="Fill-6" fill="#000"></path>
            </g>
            <g id="Group-11" transform="translate(12.272727, 21.109091)">
                <mask id="mask-4" fill="white">
                    <use xlink:href="#path-3"></use>
                </mask>
                <g id="Clip-10"></g>
                <polygon id="Fill-9" fill="#000" mask="url(#mask-4)" points="-4.52495455 9.81818182 10.0795909 9.81818182 10.0795909 -4.78636364 -4.52495455 -4.78636364"></polygon>
            </g>
        </g>
    </g>
</svg>